<svg width="24" height="24" viewBox="0 0 24 24" fill="none" xmlns="http://www.w3.org/2000/svg">
<path d="M11.0974 1.89136C11.4596 1.13224 12.5402 1.13224 12.9024 1.89136L15.2223 6.75314C15.3681 7.05865 15.6586 7.26967 15.9942 7.31391L21.3349 8.01791C22.1688 8.12784 22.5027 9.15551 21.8927 9.7346L17.9857 13.4434C17.7402 13.6764 17.6293 14.0178 17.6909 14.3507L18.6717 19.6476C18.8249 20.4746 17.9507 21.1098 17.2114 20.7085L12.4769 18.1389C12.1794 17.9774 11.8204 17.9774 11.5229 18.1389L6.78833 20.7085C6.04908 21.1098 5.17489 20.4746 5.32803 19.6476L6.30886 14.3507C6.37049 14.0178 6.25955 13.6764 6.01404 13.4434L2.10711 9.7346C1.49708 9.15551 1.83099 8.12784 2.6649 8.01791L8.00562 7.31391C8.34123 7.26967 8.63167 7.05865 8.77745 6.75314L11.0974 1.89136Z" fill="black"/>
</svg>
