<svg width="24" height="24" viewBox="0 0 24 24" fill="none" xmlns="http://www.w3.org/2000/svg">
<path fill-rule="evenodd" clip-rule="evenodd" d="M19 5C19 5.55228 18.5523 6 18 6C17.4477 6 17 5.55228 17 5C17 4.44772 17.4477 4 18 4C18.5523 4 19 4.44772 19 5ZM21 5C21 6.65685 19.6569 8 18 8C17.2986 8 16.6534 7.7593 16.1426 7.356L8.95238 11.4647C8.98367 11.6384 9 11.8173 9 12C9 12.1827 8.98366 12.3616 8.95238 12.5353L16.1426 16.644C16.6534 16.2407 17.2986 16 18 16C19.6569 16 21 17.3431 21 19C21 20.6569 19.6569 22 18 22C16.3431 22 15 20.6569 15 19C15 18.7721 15.0254 18.55 15.0736 18.3367L7.95967 14.2716C7.43398 14.7255 6.74905 15 6 15C4.34315 15 3 13.6569 3 12C3 10.3431 4.34315 9 6 9C6.74905 9 7.43398 9.27452 7.95967 9.72844L15.0736 5.66334C15.0254 5.44995 15 5.22795 15 5C15 3.34315 16.3431 2 18 2C19.6569 2 21 3.34315 21 5ZM19 19C19 19.5523 18.5523 20 18 20C17.4477 20 17 19.5523 17 19C17 18.4477 17.4477 18 18 18C18.5523 18 19 18.4477 19 19ZM6 13C6.55228 13 7 12.5523 7 12C7 11.4477 6.55228 11 6 11C5.44772 11 5 11.4477 5 12C5 12.5523 5.44772 13 6 13Z" fill="#111111"/>
</svg>
