<svg width="24" height="24" viewBox="0 0 24 24" fill="none" xmlns="http://www.w3.org/2000/svg">
<path d="M20.2495 6.74976H12.25L9.64844 4.79932C9.38907 4.6056 9.07421 4.50057 8.75049 4.49976H3.74951C3.35181 4.50015 2.9705 4.65831 2.68929 4.93953C2.40807 5.22075 2.2499 5.60205 2.24951 5.99976V18.7498C2.2499 19.1475 2.40807 19.5288 2.68929 19.81C2.9705 20.0912 3.35181 20.2494 3.74951 20.2498H20.333C20.7085 20.2492 21.0685 20.0998 21.334 19.8343C21.5996 19.5688 21.749 19.2088 21.7495 18.8333V8.24976C21.7491 7.85205 21.591 7.47075 21.3097 7.18953C21.0285 6.90831 20.6472 6.75015 20.2495 6.74976Z" fill="black"/>
</svg>
