<svg width="24" height="24" viewBox="0 0 24 24" fill="none" xmlns="http://www.w3.org/2000/svg">
<path fill-rule="evenodd" clip-rule="evenodd" d="M12 4C7.58172 4 4 7.58172 4 12C4 16.4183 7.58172 20 12 20C16.4183 20 20 16.4183 20 12C20 7.58172 16.4183 4 12 4ZM2 12C2 6.47715 6.47715 2 12 2C17.5228 2 22 6.47715 22 12C22 17.5228 17.5228 22 12 22C6.47715 22 2 17.5228 2 12Z" fill="black"/>
<path fill-rule="evenodd" clip-rule="evenodd" d="M16.3984 13.384C16.8765 13.6604 17.04 14.2721 16.7636 14.7502C16.2804 15.5859 15.5859 16.2798 14.7498 16.7622C13.9136 17.2446 12.9653 17.4986 12 17.4986C11.0346 17.4986 10.0863 17.2447 9.25013 16.7623C8.41397 16.2799 7.71944 15.586 7.23626 14.7503C6.95982 14.2722 7.12331 13.6605 7.60143 13.384C8.07955 13.1076 8.69125 13.2711 8.96769 13.7492C9.27525 14.2812 9.71734 14.7228 10.2496 15.0299C10.7818 15.337 11.3855 15.4986 11.9999 15.4986C12.6144 15.4986 13.218 15.3369 13.7503 15.0299C14.2825 14.7228 14.7246 14.2811 15.0321 13.7492C15.3086 13.271 15.9203 13.1075 16.3984 13.384Z" fill="black"/>
<path d="M8.625 11.25C9.24632 11.25 9.75 10.7463 9.75 10.125C9.75 9.50368 9.24632 9 8.625 9C8.00368 9 7.5 9.50368 7.5 10.125C7.5 10.7463 8.00368 11.25 8.625 11.25Z" fill="black"/>
<path d="M15.375 11.25C15.9963 11.25 16.5 10.7463 16.5 10.125C16.5 9.50368 15.9963 9 15.375 9C14.7537 9 14.25 9.50368 14.25 10.125C14.25 10.7463 14.7537 11.25 15.375 11.25Z" fill="black"/>
</svg>
