<svg width="24" height="24" viewBox="0 0 24 24" fill="none" xmlns="http://www.w3.org/2000/svg">
<path fill-rule="evenodd" clip-rule="evenodd" d="M18.3576 11.0687C18.8359 10.7926 19.4475 10.9564 19.7236 11.4347L21.862 15.1386C22.1382 15.6169 21.9743 16.2285 21.496 16.5046C21.0177 16.7808 20.4061 16.6169 20.13 16.1386L17.9916 12.4347C17.7154 11.9564 17.8793 11.3449 18.3576 11.0687Z" fill="black"/>
<path fill-rule="evenodd" clip-rule="evenodd" d="M14.2806 13.0085C14.8245 12.9126 15.3432 13.2758 15.4391 13.8197L16.106 17.6019C16.2019 18.1458 15.8387 18.6645 15.2948 18.7604C14.7509 18.8563 14.2323 18.4931 14.1364 17.9492L13.4695 14.167C13.3736 13.6231 13.7367 13.1044 14.2806 13.0085Z" fill="black"/>
<path fill-rule="evenodd" clip-rule="evenodd" d="M9.71047 13.0068C10.2544 13.1027 10.6175 13.6214 10.5216 14.1653L9.8546 17.9481C9.7587 18.492 9.24004 18.8552 8.69615 18.7593C8.15225 18.6634 7.78909 18.1447 7.88499 17.6008L8.55201 13.818C8.64791 13.2741 9.16657 12.9109 9.71047 13.0068Z" fill="black"/>
<path fill-rule="evenodd" clip-rule="evenodd" d="M5.63815 11.0658C6.11645 11.3419 6.28032 11.9535 6.00418 12.4318L3.85545 16.1535C3.57931 16.6318 2.96772 16.7957 2.48942 16.5195C2.01113 16.2434 1.84726 15.6318 2.1234 15.1535L4.27213 11.4318C4.54827 10.9535 5.15986 10.7896 5.63815 11.0658Z" fill="black"/>
<path fill-rule="evenodd" clip-rule="evenodd" d="M2.37161 9.0542C2.80121 8.70713 3.43083 8.77403 3.7779 9.20364C5.24385 11.0182 7.87512 13.25 12.0001 13.25C16.125 13.25 18.7563 11.0182 20.2223 9.20366C20.5693 8.77405 21.199 8.70715 21.6286 9.05422C22.0582 9.40129 22.1251 10.0309 21.778 10.4605C20.0916 12.5479 16.9438 15.25 12.0001 15.25C7.05634 15.25 3.90857 12.5479 2.22217 10.4605C1.87509 10.0309 1.942 9.40127 2.37161 9.0542Z" fill="black"/>
</svg>
