<svg width="24" height="24" viewBox="0 0 24 24" fill="none" xmlns="http://www.w3.org/2000/svg">
<path d="M12 2.25C10.0716 2.25 8.18657 2.82183 6.58319 3.89317C4.97982 4.96451 3.73013 6.48726 2.99218 8.26884C2.25422 10.0504 2.06114 12.0108 2.43735 13.9021C2.81355 15.7934 3.74215 17.5307 5.10571 18.8943C6.46928 20.2579 8.20656 21.1865 10.0979 21.5627C11.9892 21.9389 13.9496 21.7458 15.7312 21.0078C17.5127 20.2699 19.0355 19.0202 20.1068 17.4168C21.1782 15.8134 21.75 13.9284 21.75 12C21.747 9.41506 20.7188 6.93684 18.891 5.10901C17.0632 3.28118 14.5849 2.25299 12 2.25ZM15.375 9C15.5975 9 15.815 9.06598 16 9.1896C16.185 9.31321 16.3292 9.48891 16.4144 9.69448C16.4995 9.90005 16.5218 10.1262 16.4784 10.3445C16.435 10.5627 16.3278 10.7632 16.1705 10.9205C16.0132 11.0778 15.8127 11.185 15.5945 11.2284C15.3763 11.2718 15.1501 11.2495 14.9445 11.1644C14.7389 11.0792 14.5632 10.935 14.4396 10.75C14.316 10.565 14.25 10.3475 14.25 10.125C14.25 9.82664 14.3686 9.5405 14.5795 9.32952C14.7905 9.11855 15.0766 9.00001 15.375 9ZM8.625 9C8.84751 9 9.06502 9.06598 9.25002 9.1896C9.43503 9.31321 9.57922 9.48891 9.66437 9.69448C9.74952 9.90005 9.7718 10.1262 9.72839 10.3445C9.68498 10.5627 9.57783 10.7632 9.4205 10.9205C9.26317 11.0778 9.06271 11.185 8.84448 11.2284C8.62625 11.2718 8.40005 11.2495 8.19449 11.1644C7.98892 11.0792 7.81322 10.935 7.6896 10.75C7.56598 10.565 7.5 10.3475 7.5 10.125C7.50002 9.82664 7.61855 9.5405 7.82953 9.32952C8.0405 9.11855 8.32664 9.00001 8.625 9ZM16.5469 14.6257C15.9747 15.6145 15.0966 16.3906 14.0449 16.8369C12.8653 17.334 11.5449 17.3836 10.3313 16.9765C9.11776 16.5694 8.09438 15.7336 7.45313 14.6257C7.40379 14.5405 7.37171 14.4464 7.35874 14.3488C7.34576 14.2512 7.35214 14.152 7.37751 14.0568C7.40288 13.9617 7.44674 13.8725 7.50659 13.7943C7.56644 13.7161 7.6411 13.6504 7.72632 13.6011C7.81154 13.5517 7.90564 13.5197 8.00326 13.5067C8.10087 13.4937 8.20008 13.5001 8.29523 13.5255C8.39038 13.5508 8.4796 13.5947 8.5578 13.6545C8.636 13.7144 8.70164 13.789 8.75098 13.8743C9.16083 14.5812 9.78895 15.1361 10.541 15.4556C11.0035 15.6485 11.4996 15.7478 12.0007 15.7478C12.5018 15.7478 12.998 15.6485 13.4605 15.4556C13.9056 15.2668 14.3099 14.9937 14.6514 14.6514C14.8831 14.419 15.0839 14.1579 15.249 13.8743C15.2984 13.789 15.364 13.7144 15.4422 13.6545C15.5204 13.5947 15.6096 13.5508 15.7048 13.5255C15.7999 13.5001 15.8991 13.4937 15.9968 13.5067C16.0944 13.5197 16.1885 13.5517 16.2737 13.6011C16.3589 13.6504 16.4336 13.7161 16.4934 13.7943C16.5533 13.8725 16.5971 13.9617 16.6225 14.0568C16.6479 14.152 16.6542 14.2512 16.6413 14.3488C16.6283 14.4464 16.5962 14.5405 16.5469 14.6257Z" fill="#FFB84F"/>
</svg>
