<svg width="24" height="24" viewBox="0 0 24 24" fill="none" xmlns="http://www.w3.org/2000/svg">
<path d="M19.5 3H4.5C4.10226 3.00027 3.72088 3.15839 3.43964 3.43964C3.15839 3.72088 3.00027 4.10226 3 4.5V19.5C3.00027 19.8977 3.15839 20.2791 3.43964 20.5604C3.72088 20.8416 4.10226 20.9997 4.5 21H14.6895C14.8865 21.0004 15.0816 20.9617 15.2637 20.8863C15.4457 20.8109 15.611 20.7002 15.75 20.5605L20.5605 15.75C20.7002 15.611 20.8109 15.4457 20.8863 15.2637C20.9617 15.0816 21.0004 14.8865 21 14.6895V4.5C20.9997 4.10226 20.8416 3.72088 20.5604 3.43964C20.2791 3.15839 19.8977 3.00027 19.5 3ZM9 8.25H15C15.1989 8.25 15.3897 8.32902 15.5303 8.46967C15.671 8.61032 15.75 8.80109 15.75 9C15.75 9.19891 15.671 9.38968 15.5303 9.53033C15.3897 9.67098 15.1989 9.75 15 9.75H9C8.80109 9.75 8.61032 9.67098 8.46967 9.53033C8.32902 9.38968 8.25 9.19891 8.25 9C8.25 8.80109 8.32902 8.61032 8.46967 8.46967C8.61032 8.32902 8.80109 8.25 9 8.25ZM12 15.75H9C8.80109 15.75 8.61032 15.671 8.46967 15.5303C8.32902 15.3897 8.25 15.1989 8.25 15C8.25 14.8011 8.32902 14.6103 8.46967 14.4697C8.61032 14.329 8.80109 14.25 9 14.25H12C12.1989 14.25 12.3897 14.329 12.5303 14.4697C12.671 14.6103 12.75 14.8011 12.75 15C12.75 15.1989 12.671 15.3897 12.5303 15.5303C12.3897 15.671 12.1989 15.75 12 15.75ZM9 12.75C8.80109 12.75 8.61032 12.671 8.46967 12.5303C8.32902 12.3897 8.25 12.1989 8.25 12C8.25 11.8011 8.32902 11.6103 8.46967 11.4697C8.61032 11.329 8.80109 11.25 9 11.25H15C15.1989 11.25 15.3897 11.329 15.5303 11.4697C15.671 11.6103 15.75 11.8011 15.75 12C15.75 12.1989 15.671 12.3897 15.5303 12.5303C15.3897 12.671 15.1989 12.75 15 12.75H9ZM15 19.1895V14.9985H19.1909L15 19.1895Z" fill="black"/>
</svg>
