<svg width="24" height="24" viewBox="0 0 24 24" fill="none" xmlns="http://www.w3.org/2000/svg">
<path fill-rule="evenodd" clip-rule="evenodd" d="M10.195 1.4607C10.9195 -0.0575395 13.0806 -0.0575395 13.8051 1.4607L16.125 6.32248L21.4657 7.02649C23.1336 7.24634 23.8014 9.30169 22.5813 10.4599L18.6744 14.1686L19.6552 19.4655C19.9615 21.1196 18.2131 22.3899 16.7346 21.5874L12.0001 19.0178L7.26553 21.5874C5.78702 22.3899 4.03863 21.1196 4.34493 19.4655L5.32575 14.1686L1.41882 10.4599C0.198756 9.30169 0.86658 7.24634 2.53439 7.02649L7.87511 6.32248L10.195 1.4607ZM12.0001 2.32202L9.68014 7.1838C9.38858 7.79482 8.8077 8.21685 8.13649 8.30533L2.79576 9.00934L6.7027 12.7181C7.19371 13.1842 7.41559 13.8671 7.29232 14.5328L6.31149 19.8296L11.046 17.26C11.6411 16.9371 12.3591 16.9371 12.9541 17.26L17.6886 19.8296L16.7078 14.5328C16.5845 13.8671 16.8064 13.1842 17.2974 12.7181L21.2044 9.00934L15.8636 8.30533C15.1924 8.21685 14.6116 7.79482 14.32 7.1838L12.0001 2.32202Z" fill="black"/>
</svg>
