<svg width="100" height="100" viewBox="0 0 100 100" fill="none" xmlns="http://www.w3.org/2000/svg">
<path d="M90.4568 10L88.7203 24.6176L64.7335 29.2191C64.0844 29.3491 63.5894 29.8776 63.5082 30.5361L63.1268 33.8125C63.0457 34.471 62.5507 35.0075 61.9015 35.1295L15.5996 44.0398L17.0602 31.6987C17.182 30.6743 17.9529 29.8451 18.9672 29.65L63.5488 21.0729C64.198 20.9429 64.6929 20.4144 64.7741 19.7559L65.2285 15.9267C65.3015 15.2682 65.7965 14.7316 66.4457 14.6096L90.4568 10Z" fill="url(#paint0_linear_217_5054)"/>
<path d="M87.7056 32.9842L85.961 47.6017L61.9742 52.2032C61.3251 52.3251 60.8301 52.8617 60.757 53.5202L60.3675 56.7966C60.2864 57.4551 59.7995 57.9835 59.1422 58.1136L12.8403 67.0158L14.5038 52.9511L60.7976 44.0489C61.4468 43.927 61.9418 43.3904 62.0148 42.74L62.4692 38.9027C62.5504 38.2442 63.0454 37.7158 63.6945 37.5938L87.7056 32.9842Z" fill="url(#paint1_linear_217_5054)"/>
<path d="M84.8572 55.9602L83.3235 68.8542C83.2018 69.8867 82.4309 70.7159 81.4166 70.9111L59.1339 75.1874C58.4848 75.3093 57.9898 75.8378 57.9086 76.4963L57.5272 79.7808C57.4461 80.4311 56.9511 80.9677 56.3019 81.0897L10 90L11.6635 75.9353L57.9573 67.0331C58.6065 66.903 59.0933 66.3746 59.1745 65.7161L59.6289 61.8869C59.7101 61.2284 60.1969 60.6999 60.8461 60.5698L84.8572 55.9602Z" fill="url(#paint2_linear_217_5054)"/>
<defs>
<linearGradient id="paint0_linear_217_5054" x1="90.4568" y1="27.0199" x2="15.5996" y2="27.0199" gradientUnits="userSpaceOnUse">
<stop stop-color="#F02F5E"/>
<stop offset="1" stop-color="#FF4343"/>
</linearGradient>
<linearGradient id="paint1_linear_217_5054" x1="87.7056" y1="50" x2="12.8403" y2="50" gradientUnits="userSpaceOnUse">
<stop stop-color="#F02F5E"/>
<stop offset="1" stop-color="#FF4343"/>
</linearGradient>
<linearGradient id="paint2_linear_217_5054" x1="84.8572" y1="72.9801" x2="10" y2="72.9801" gradientUnits="userSpaceOnUse">
<stop stop-color="#F02F5E"/>
<stop offset="1" stop-color="#FF4343"/>
</linearGradient>
</defs>
</svg>
