<svg width="24" height="24" viewBox="0 0 24 24" fill="none" xmlns="http://www.w3.org/2000/svg">
<path fill-rule="evenodd" clip-rule="evenodd" d="M15.75 4.4141L4.75 15.4141V19.2499H8.58579L19.5858 8.24989L15.75 4.4141ZM4.67705 15.4871L4.67678 15.4873L4.5 15.3105L4.67678 15.4873C4.67687 15.4872 4.67696 15.4871 4.67705 15.4871ZM14.5126 2.82311C14.8408 2.49492 15.2859 2.31055 15.75 2.31055C16.2141 2.31055 16.6592 2.49492 16.9874 2.82311L16.467 3.34354L16.9874 2.82311L21.1768 7.01245L20.4697 7.71956L21.1768 7.01245C21.505 7.34064 21.6893 7.78576 21.6893 8.24989C21.6893 8.71401 21.505 9.15913 21.1768 9.48732L9.70711 20.957C9.51957 21.1445 9.26522 21.2499 9 21.2499H4.5C4.03587 21.2499 3.59075 21.0655 3.26256 20.7373C2.93437 20.4091 2.75 19.964 2.75 19.4999V15.3105C2.75 15.0807 2.79527 14.8532 2.88321 14.6409C2.97116 14.4285 3.10006 14.2356 3.26256 14.0731L14.5126 2.82311L15.2052 3.51579L14.5126 2.82311Z" fill="black"/>
<path fill-rule="evenodd" clip-rule="evenodd" d="M12.0429 5.29289C12.4334 4.90237 13.0666 4.90237 13.4571 5.29289L18.7071 10.5429C19.0976 10.9334 19.0976 11.5666 18.7071 11.9571C18.3166 12.3476 17.6834 12.3476 17.2929 11.9571L12.0429 6.70711C11.6524 6.31658 11.6524 5.68342 12.0429 5.29289Z" fill="black"/>
<path fill-rule="evenodd" clip-rule="evenodd" d="M3.09074 14.3405C3.48127 13.95 4.11443 13.95 4.50496 14.3405L9.41435 19.2499H20.2501C20.8024 19.2499 21.2501 19.6976 21.2501 20.2499C21.2501 20.8022 20.8024 21.2499 20.2501 21.2499H9.00013C8.73492 21.2499 8.48056 21.1445 8.29303 20.957L3.09074 15.7547C2.70022 15.3642 2.70022 14.731 3.09074 14.3405Z" fill="black"/>
</svg>
