<svg width="24" height="24" viewBox="0 0 24 24" fill="none" xmlns="http://www.w3.org/2000/svg">
<path fill-rule="evenodd" clip-rule="evenodd" d="M3.23044 7.91757C5.05175 6.09605 7.91747 4.24927 12.0001 4.24927C16.0827 4.24927 18.9484 6.09605 20.7697 7.91757C21.6775 8.82544 22.3318 9.73157 22.7604 10.4124C22.9752 10.7536 23.1348 11.0405 23.2424 11.246C23.2962 11.3487 23.3372 11.4314 23.3656 11.4904C23.3798 11.5199 23.3909 11.5436 23.3989 11.561L23.4087 11.5823L23.4119 11.5893L23.4135 11.593C23.4137 11.5935 23.4139 11.5939 22.5001 12C23.4139 12.4062 23.4137 12.4066 23.4135 12.4071L23.413 12.4081L23.4118 12.4107L23.4087 12.4178L23.3989 12.4391C23.3909 12.4565 23.3798 12.4801 23.3655 12.5097C23.3371 12.5687 23.2962 12.6513 23.2423 12.7541C23.1347 12.9594 22.9752 13.2463 22.7604 13.5874C22.3317 14.2681 21.6774 15.1741 20.7697 16.0818C18.9483 17.9029 16.0826 19.7493 12.0001 19.7493C7.91754 19.7493 5.05185 17.9029 3.23052 16.0818C2.32274 15.1741 1.66846 14.2681 1.23982 13.5874C1.025 13.2463 0.865426 12.9594 0.757829 12.7541C0.703993 12.6513 0.663058 12.5687 0.634624 12.5097C0.620404 12.4801 0.6093 12.4565 0.601264 12.4391L0.591499 12.4178L0.588327 12.4107L0.587167 12.4081L0.586693 12.4071C0.586486 12.4066 0.58629 12.4062 1.50008 12C0.586257 11.5939 0.586453 11.5935 0.58666 11.593L0.587134 11.5919L0.588294 11.5893L0.591465 11.5823L0.601229 11.561C0.609265 11.5436 0.620368 11.5199 0.634587 11.4904C0.663019 11.4314 0.703954 11.3487 0.757787 11.246C0.865381 11.0405 1.02495 10.7536 1.23976 10.4124C1.6684 9.73157 2.32267 8.82544 3.23044 7.91757ZM1.50008 12L0.58666 11.593C0.471753 11.8516 0.471765 12.1485 0.586693 12.4071L1.50008 12ZM2.62323 11.9999C2.70292 12.144 2.80564 12.3207 2.93223 12.5217C3.30046 13.1065 3.86493 13.8879 4.64465 14.6675C6.19832 16.221 8.58263 17.7493 12.0001 17.7493C15.4175 17.7493 17.8019 16.221 19.3555 14.6675C20.1352 13.8879 20.6997 13.1065 21.0679 12.5217C21.1945 12.3207 21.2972 12.144 21.3769 11.9999C21.2972 11.8559 21.1945 11.6791 21.0679 11.478C20.6997 10.8931 20.1352 10.1115 19.3554 9.3317C17.8018 7.77785 15.4175 6.24927 12.0001 6.24927C8.5827 6.24927 6.19842 7.77785 4.64473 9.3317C3.865 10.1115 3.30052 10.8931 2.93228 11.478C2.80567 11.6791 2.70293 11.8559 2.62323 11.9999ZM22.5001 12L23.4135 12.4071C23.5284 12.1485 23.5284 11.8516 23.4135 11.593L22.5001 12ZM2.41298 12.4082C2.41275 12.4087 2.41284 12.4085 2.41298 12.4082V12.4082ZM2.41308 11.592C2.41285 11.5915 2.41294 11.5917 2.41308 11.592V11.592Z" fill="black"/>
<path fill-rule="evenodd" clip-rule="evenodd" d="M12 9.25C10.4812 9.25 9.25 10.4812 9.25 12C9.25 13.5188 10.4812 14.75 12 14.75C13.5188 14.75 14.75 13.5188 14.75 12C14.75 10.4812 13.5188 9.25 12 9.25ZM7.25 12C7.25 9.37665 9.37665 7.25 12 7.25C14.6234 7.25 16.75 9.37665 16.75 12C16.75 14.6234 14.6234 16.75 12 16.75C9.37665 16.75 7.25 14.6234 7.25 12Z" fill="black"/>
</svg>
